<mxfile host="app.diagrams.net" modified="2023-06-18T16:04:59.239Z" agent="Mozilla/5.0 (Windows NT 10.0; Win64; x64) AppleWebKit/537.36 (KHTML, like Gecko) Chrome/114.0.0.0 Safari/537.36" etag="CjKKzh8BQHGBOF4uv63C" version="21.4.0" type="device">
  <diagram name="Page-1" id="4NttJN0XThCtxKq1Q5k7">
    <mxGraphModel dx="2074" dy="1124" grid="1" gridSize="10" guides="1" tooltips="1" connect="1" arrows="1" fold="1" page="1" pageScale="1" pageWidth="850" pageHeight="1100" math="0" shadow="0">
      <root>
        <mxCell id="0" />
        <mxCell id="1" parent="0" />
        <mxCell id="UZr9VpXuxcfmV2gfaOis-1" value="" style="rounded=0;whiteSpace=wrap;html=1;" parent="1" vertex="1">
          <mxGeometry x="80" y="120" width="370" height="580" as="geometry" />
        </mxCell>
        <mxCell id="UZr9VpXuxcfmV2gfaOis-2" value="Gr&amp;nbsp; &amp;nbsp;o&amp;nbsp; upTripper" style="html=1;shadow=0;dashed=0;fillColor=#F8F9FA;strokeColor=none;fontSize=16;fontColor=#181819;align=left;spacing=15;" parent="1" vertex="1">
          <mxGeometry x="80" y="120" width="370" height="50" as="geometry" />
        </mxCell>
        <mxCell id="UZr9VpXuxcfmV2gfaOis-4" value="Username" style="fillColor=none;strokeColor=none;fontSize=14;fontColor=#7C7C7D;align=center;" parent="UZr9VpXuxcfmV2gfaOis-2" vertex="1">
          <mxGeometry width="50" height="40" relative="1" as="geometry">
            <mxPoint x="300" y="5" as="offset" />
          </mxGeometry>
        </mxCell>
        <mxCell id="UZr9VpXuxcfmV2gfaOis-10" value="" style="html=1;verticalLabelPosition=bottom;align=center;labelBackgroundColor=#ffffff;verticalAlign=top;strokeWidth=2;strokeColor=#0080F0;shadow=0;dashed=0;shape=mxgraph.ios7.icons.location;" parent="UZr9VpXuxcfmV2gfaOis-2" vertex="1">
          <mxGeometry x="30" y="10.158333333333335" width="28.24" height="29.683333333333334" as="geometry" />
        </mxCell>
        <mxCell id="UZr9VpXuxcfmV2gfaOis-14" value="" style="html=1;verticalLabelPosition=bottom;align=center;labelBackgroundColor=#ffffff;verticalAlign=top;strokeWidth=2;strokeColor=#0080F0;shadow=0;dashed=0;shape=mxgraph.ios7.icons.user;" parent="UZr9VpXuxcfmV2gfaOis-2" vertex="1">
          <mxGeometry x="260" y="10.153333333333334" width="30" height="29.683333333333334" as="geometry" />
        </mxCell>
        <mxCell id="UZr9VpXuxcfmV2gfaOis-40" value="" style="endArrow=classic;html=1;rounded=0;entryX=0;entryY=0.043;entryDx=0;entryDy=0;entryPerimeter=0;exitX=1;exitY=1;exitDx=0;exitDy=0;" parent="1" source="UZr9VpXuxcfmV2gfaOis-4" edge="1">
          <mxGeometry width="50" height="50" relative="1" as="geometry">
            <mxPoint x="410" y="130" as="sourcePoint" />
            <mxPoint x="580" y="129.8900000000001" as="targetPoint" />
          </mxGeometry>
        </mxCell>
        <mxCell id="UZr9VpXuxcfmV2gfaOis-43" value="click" style="edgeLabel;html=1;align=center;verticalAlign=middle;resizable=0;points=[];" parent="UZr9VpXuxcfmV2gfaOis-40" vertex="1" connectable="0">
          <mxGeometry x="0.6213" y="3" relative="1" as="geometry">
            <mxPoint as="offset" />
          </mxGeometry>
        </mxCell>
        <mxCell id="UZr9VpXuxcfmV2gfaOis-44" value="" style="endArrow=classic;html=1;rounded=0;" parent="1" edge="1">
          <mxGeometry width="50" height="50" relative="1" as="geometry">
            <mxPoint x="140" y="130" as="sourcePoint" />
            <mxPoint x="190" y="80" as="targetPoint" />
          </mxGeometry>
        </mxCell>
        <mxCell id="UZr9VpXuxcfmV2gfaOis-45" value="Clicking on logo always redirects home" style="text;html=1;strokeColor=none;fillColor=none;align=center;verticalAlign=middle;whiteSpace=wrap;rounded=0;" parent="1" vertex="1">
          <mxGeometry x="160" y="50" width="150" height="30" as="geometry" />
        </mxCell>
        <mxCell id="UZr9VpXuxcfmV2gfaOis-50" value="&lt;font style=&quot;font-size: 19px;&quot;&gt;Your trips&lt;/font&gt;" style="text;html=1;strokeColor=none;fillColor=none;align=center;verticalAlign=middle;whiteSpace=wrap;rounded=0;" parent="1" vertex="1">
          <mxGeometry x="80" y="180" width="140" height="30" as="geometry" />
        </mxCell>
        <mxCell id="UZr9VpXuxcfmV2gfaOis-54" value="Upcoming trips" style="html=1;shadow=0;dashed=0;shape=mxgraph.bootstrap.rrect;rSize=5;strokeColor=#505050;strokeWidth=1;fillColor=#ffffff;fontColor=#777777;whiteSpace=wrap;align=left;verticalAlign=middle;fontStyle=0;fontSize=14;spacingRight=0;spacing=17;" parent="1" vertex="1">
          <mxGeometry x="110" y="230" width="140" height="40" as="geometry" />
        </mxCell>
        <mxCell id="UZr9VpXuxcfmV2gfaOis-55" value="" style="shape=triangle;direction=south;fillColor=#495057;strokeColor=none;perimeter=none;" parent="UZr9VpXuxcfmV2gfaOis-54" vertex="1">
          <mxGeometry x="1" y="0.5" width="10" height="5" relative="1" as="geometry">
            <mxPoint x="-17" y="-2.5" as="offset" />
          </mxGeometry>
        </mxCell>
        <mxCell id="UZr9VpXuxcfmV2gfaOis-56" value="" style="group;fillColor=#f5f5f5;fontColor=#080808;strokeColor=#666666;" parent="1" vertex="1" connectable="0">
          <mxGeometry x="330" y="230" width="106" height="40" as="geometry" />
        </mxCell>
        <mxCell id="UZr9VpXuxcfmV2gfaOis-53" value="&lt;font color=&quot;#080808&quot;&gt;&amp;nbsp; &amp;nbsp; &amp;nbsp; &amp;nbsp;New trip&lt;/font&gt;" style="rounded=1;fillColor=none;strokeColor=none;html=1;whiteSpace=wrap;fontColor=#ffffff;align=center;verticalAlign=middle;fontStyle=0;fontSize=12;sketch=0;" parent="UZr9VpXuxcfmV2gfaOis-56" vertex="1">
          <mxGeometry width="106" height="40" as="geometry" />
        </mxCell>
        <mxCell id="UZr9VpXuxcfmV2gfaOis-52" value="" style="shape=image;html=1;verticalAlign=top;verticalLabelPosition=bottom;labelBackgroundColor=#ffffff;imageAspect=0;aspect=fixed;image=https://cdn4.iconfinder.com/data/icons/evil-icons-user-interface/64/plus-128.png" parent="UZr9VpXuxcfmV2gfaOis-56" vertex="1">
          <mxGeometry x="6" y="5" width="30" height="30" as="geometry" />
        </mxCell>
        <mxCell id="UZr9VpXuxcfmV2gfaOis-57" value="" style="endArrow=classic;html=1;rounded=0;" parent="1" edge="1">
          <mxGeometry width="50" height="50" relative="1" as="geometry">
            <mxPoint x="200" y="220" as="sourcePoint" />
            <mxPoint x="360" y="40" as="targetPoint" />
          </mxGeometry>
        </mxCell>
        <mxCell id="UZr9VpXuxcfmV2gfaOis-58" value="Single select. Options: upcoming trips, past trips, all. Default selection = Upcoming trips" style="text;html=1;strokeColor=none;fillColor=none;align=center;verticalAlign=middle;whiteSpace=wrap;rounded=0;" parent="1" vertex="1">
          <mxGeometry x="330" width="250" height="40" as="geometry" />
        </mxCell>
        <mxCell id="UZr9VpXuxcfmV2gfaOis-86" value="" style="group" parent="1" vertex="1" connectable="0">
          <mxGeometry x="120" y="310" width="280" height="100" as="geometry" />
        </mxCell>
        <mxCell id="UZr9VpXuxcfmV2gfaOis-72" value="" style="group" parent="UZr9VpXuxcfmV2gfaOis-86" vertex="1" connectable="0">
          <mxGeometry width="80" height="100" as="geometry" />
        </mxCell>
        <mxCell id="UZr9VpXuxcfmV2gfaOis-46" value="" style="rounded=0;whiteSpace=wrap;html=1;" parent="UZr9VpXuxcfmV2gfaOis-72" vertex="1">
          <mxGeometry width="80" height="100" as="geometry" />
        </mxCell>
        <mxCell id="UZr9VpXuxcfmV2gfaOis-67" value="Title" style="rounded=0;whiteSpace=wrap;html=1;" parent="UZr9VpXuxcfmV2gfaOis-72" vertex="1">
          <mxGeometry x="10" y="10" width="40" height="20" as="geometry" />
        </mxCell>
        <mxCell id="UZr9VpXuxcfmV2gfaOis-68" value="Dates" style="rounded=0;whiteSpace=wrap;html=1;" parent="UZr9VpXuxcfmV2gfaOis-72" vertex="1">
          <mxGeometry x="10" y="30" width="40" height="20" as="geometry" />
        </mxCell>
        <mxCell id="UZr9VpXuxcfmV2gfaOis-70" value="" style="strokeColor=#999999;verticalLabelPosition=bottom;shadow=0;dashed=0;verticalAlign=top;strokeWidth=2;html=1;shape=mxgraph.mockup.misc.shareIcon;" parent="UZr9VpXuxcfmV2gfaOis-72" vertex="1">
          <mxGeometry x="40" y="80" width="20" height="20" as="geometry" />
        </mxCell>
        <mxCell id="UZr9VpXuxcfmV2gfaOis-69" value="" style="shape=image;html=1;verticalAlign=top;verticalLabelPosition=bottom;labelBackgroundColor=#ffffff;imageAspect=0;aspect=fixed;image=https://cdn3.iconfinder.com/data/icons/user-interface-169/32/trash-128.png" parent="UZr9VpXuxcfmV2gfaOis-72" vertex="1">
          <mxGeometry x="60" y="80" width="20" height="20" as="geometry" />
        </mxCell>
        <mxCell id="UZr9VpXuxcfmV2gfaOis-74" value="" style="group" parent="UZr9VpXuxcfmV2gfaOis-86" vertex="1" connectable="0">
          <mxGeometry x="100" width="80" height="100" as="geometry" />
        </mxCell>
        <mxCell id="UZr9VpXuxcfmV2gfaOis-75" value="" style="rounded=0;whiteSpace=wrap;html=1;" parent="UZr9VpXuxcfmV2gfaOis-74" vertex="1">
          <mxGeometry width="80" height="100" as="geometry" />
        </mxCell>
        <mxCell id="UZr9VpXuxcfmV2gfaOis-76" value="Title" style="rounded=0;whiteSpace=wrap;html=1;" parent="UZr9VpXuxcfmV2gfaOis-74" vertex="1">
          <mxGeometry x="10" y="10" width="40" height="20" as="geometry" />
        </mxCell>
        <mxCell id="UZr9VpXuxcfmV2gfaOis-77" value="Dates" style="rounded=0;whiteSpace=wrap;html=1;" parent="UZr9VpXuxcfmV2gfaOis-74" vertex="1">
          <mxGeometry x="10" y="30" width="40" height="20" as="geometry" />
        </mxCell>
        <mxCell id="UZr9VpXuxcfmV2gfaOis-78" value="" style="strokeColor=#999999;verticalLabelPosition=bottom;shadow=0;dashed=0;verticalAlign=top;strokeWidth=2;html=1;shape=mxgraph.mockup.misc.shareIcon;" parent="UZr9VpXuxcfmV2gfaOis-74" vertex="1">
          <mxGeometry x="40" y="80" width="20" height="20" as="geometry" />
        </mxCell>
        <mxCell id="UZr9VpXuxcfmV2gfaOis-79" value="" style="shape=image;html=1;verticalAlign=top;verticalLabelPosition=bottom;labelBackgroundColor=#ffffff;imageAspect=0;aspect=fixed;image=https://cdn3.iconfinder.com/data/icons/user-interface-169/32/trash-128.png" parent="UZr9VpXuxcfmV2gfaOis-74" vertex="1">
          <mxGeometry x="60" y="80" width="20" height="20" as="geometry" />
        </mxCell>
        <mxCell id="UZr9VpXuxcfmV2gfaOis-80" value="" style="group" parent="UZr9VpXuxcfmV2gfaOis-86" vertex="1" connectable="0">
          <mxGeometry x="200" width="80" height="100" as="geometry" />
        </mxCell>
        <mxCell id="UZr9VpXuxcfmV2gfaOis-81" value="" style="rounded=0;whiteSpace=wrap;html=1;" parent="UZr9VpXuxcfmV2gfaOis-80" vertex="1">
          <mxGeometry width="80" height="100" as="geometry" />
        </mxCell>
        <mxCell id="UZr9VpXuxcfmV2gfaOis-82" value="Title" style="rounded=0;whiteSpace=wrap;html=1;" parent="UZr9VpXuxcfmV2gfaOis-80" vertex="1">
          <mxGeometry x="10" y="10" width="40" height="20" as="geometry" />
        </mxCell>
        <mxCell id="UZr9VpXuxcfmV2gfaOis-83" value="Dates" style="rounded=0;whiteSpace=wrap;html=1;" parent="UZr9VpXuxcfmV2gfaOis-80" vertex="1">
          <mxGeometry x="10" y="30" width="40" height="20" as="geometry" />
        </mxCell>
        <mxCell id="UZr9VpXuxcfmV2gfaOis-84" value="" style="strokeColor=#999999;verticalLabelPosition=bottom;shadow=0;dashed=0;verticalAlign=top;strokeWidth=2;html=1;shape=mxgraph.mockup.misc.shareIcon;" parent="UZr9VpXuxcfmV2gfaOis-80" vertex="1">
          <mxGeometry x="40" y="80" width="20" height="20" as="geometry" />
        </mxCell>
        <mxCell id="UZr9VpXuxcfmV2gfaOis-85" value="" style="shape=image;html=1;verticalAlign=top;verticalLabelPosition=bottom;labelBackgroundColor=#ffffff;imageAspect=0;aspect=fixed;image=https://cdn3.iconfinder.com/data/icons/user-interface-169/32/trash-128.png" parent="UZr9VpXuxcfmV2gfaOis-80" vertex="1">
          <mxGeometry x="60" y="80" width="20" height="20" as="geometry" />
        </mxCell>
        <mxCell id="UZr9VpXuxcfmV2gfaOis-93" value="" style="group" parent="1" vertex="1" connectable="0">
          <mxGeometry x="120" y="430" width="280" height="100" as="geometry" />
        </mxCell>
        <mxCell id="UZr9VpXuxcfmV2gfaOis-94" value="" style="group" parent="UZr9VpXuxcfmV2gfaOis-93" vertex="1" connectable="0">
          <mxGeometry width="80" height="100" as="geometry" />
        </mxCell>
        <mxCell id="UZr9VpXuxcfmV2gfaOis-95" value="" style="rounded=0;whiteSpace=wrap;html=1;" parent="UZr9VpXuxcfmV2gfaOis-94" vertex="1">
          <mxGeometry width="80" height="100" as="geometry" />
        </mxCell>
        <mxCell id="UZr9VpXuxcfmV2gfaOis-96" value="Title" style="rounded=0;whiteSpace=wrap;html=1;" parent="UZr9VpXuxcfmV2gfaOis-94" vertex="1">
          <mxGeometry x="10" y="10" width="40" height="20" as="geometry" />
        </mxCell>
        <mxCell id="UZr9VpXuxcfmV2gfaOis-97" value="Dates" style="rounded=0;whiteSpace=wrap;html=1;" parent="UZr9VpXuxcfmV2gfaOis-94" vertex="1">
          <mxGeometry x="10" y="30" width="40" height="20" as="geometry" />
        </mxCell>
        <mxCell id="UZr9VpXuxcfmV2gfaOis-98" value="" style="strokeColor=#999999;verticalLabelPosition=bottom;shadow=0;dashed=0;verticalAlign=top;strokeWidth=2;html=1;shape=mxgraph.mockup.misc.shareIcon;" parent="UZr9VpXuxcfmV2gfaOis-94" vertex="1">
          <mxGeometry x="40" y="80" width="20" height="20" as="geometry" />
        </mxCell>
        <mxCell id="UZr9VpXuxcfmV2gfaOis-99" value="" style="shape=image;html=1;verticalAlign=top;verticalLabelPosition=bottom;labelBackgroundColor=#ffffff;imageAspect=0;aspect=fixed;image=https://cdn3.iconfinder.com/data/icons/user-interface-169/32/trash-128.png" parent="UZr9VpXuxcfmV2gfaOis-94" vertex="1">
          <mxGeometry x="60" y="80" width="20" height="20" as="geometry" />
        </mxCell>
        <mxCell id="UZr9VpXuxcfmV2gfaOis-100" value="" style="group" parent="UZr9VpXuxcfmV2gfaOis-93" vertex="1" connectable="0">
          <mxGeometry x="100" width="80" height="100" as="geometry" />
        </mxCell>
        <mxCell id="UZr9VpXuxcfmV2gfaOis-101" value="" style="rounded=0;whiteSpace=wrap;html=1;" parent="UZr9VpXuxcfmV2gfaOis-100" vertex="1">
          <mxGeometry width="80" height="100" as="geometry" />
        </mxCell>
        <mxCell id="UZr9VpXuxcfmV2gfaOis-102" value="Title" style="rounded=0;whiteSpace=wrap;html=1;" parent="UZr9VpXuxcfmV2gfaOis-100" vertex="1">
          <mxGeometry x="10" y="10" width="40" height="20" as="geometry" />
        </mxCell>
        <mxCell id="UZr9VpXuxcfmV2gfaOis-103" value="Dates" style="rounded=0;whiteSpace=wrap;html=1;" parent="UZr9VpXuxcfmV2gfaOis-100" vertex="1">
          <mxGeometry x="10" y="30" width="40" height="20" as="geometry" />
        </mxCell>
        <mxCell id="UZr9VpXuxcfmV2gfaOis-104" value="" style="strokeColor=#999999;verticalLabelPosition=bottom;shadow=0;dashed=0;verticalAlign=top;strokeWidth=2;html=1;shape=mxgraph.mockup.misc.shareIcon;" parent="UZr9VpXuxcfmV2gfaOis-100" vertex="1">
          <mxGeometry x="40" y="80" width="20" height="20" as="geometry" />
        </mxCell>
        <mxCell id="UZr9VpXuxcfmV2gfaOis-105" value="" style="shape=image;html=1;verticalAlign=top;verticalLabelPosition=bottom;labelBackgroundColor=#ffffff;imageAspect=0;aspect=fixed;image=https://cdn3.iconfinder.com/data/icons/user-interface-169/32/trash-128.png" parent="UZr9VpXuxcfmV2gfaOis-100" vertex="1">
          <mxGeometry x="60" y="80" width="20" height="20" as="geometry" />
        </mxCell>
        <mxCell id="UZr9VpXuxcfmV2gfaOis-106" value="" style="group" parent="UZr9VpXuxcfmV2gfaOis-93" vertex="1" connectable="0">
          <mxGeometry x="200" width="80" height="100" as="geometry" />
        </mxCell>
        <mxCell id="UZr9VpXuxcfmV2gfaOis-107" value="" style="rounded=0;whiteSpace=wrap;html=1;" parent="UZr9VpXuxcfmV2gfaOis-106" vertex="1">
          <mxGeometry width="80" height="100" as="geometry" />
        </mxCell>
        <mxCell id="UZr9VpXuxcfmV2gfaOis-108" value="Title" style="rounded=0;whiteSpace=wrap;html=1;" parent="UZr9VpXuxcfmV2gfaOis-106" vertex="1">
          <mxGeometry x="10" y="10" width="40" height="20" as="geometry" />
        </mxCell>
        <mxCell id="UZr9VpXuxcfmV2gfaOis-109" value="Dates" style="rounded=0;whiteSpace=wrap;html=1;" parent="UZr9VpXuxcfmV2gfaOis-106" vertex="1">
          <mxGeometry x="10" y="30" width="40" height="20" as="geometry" />
        </mxCell>
        <mxCell id="UZr9VpXuxcfmV2gfaOis-110" value="" style="strokeColor=#999999;verticalLabelPosition=bottom;shadow=0;dashed=0;verticalAlign=top;strokeWidth=2;html=1;shape=mxgraph.mockup.misc.shareIcon;" parent="UZr9VpXuxcfmV2gfaOis-106" vertex="1">
          <mxGeometry x="40" y="80" width="20" height="20" as="geometry" />
        </mxCell>
        <mxCell id="UZr9VpXuxcfmV2gfaOis-111" value="" style="shape=image;html=1;verticalAlign=top;verticalLabelPosition=bottom;labelBackgroundColor=#ffffff;imageAspect=0;aspect=fixed;image=https://cdn3.iconfinder.com/data/icons/user-interface-169/32/trash-128.png" parent="UZr9VpXuxcfmV2gfaOis-106" vertex="1">
          <mxGeometry x="60" y="80" width="20" height="20" as="geometry" />
        </mxCell>
        <mxCell id="UZr9VpXuxcfmV2gfaOis-113" value="" style="endArrow=classic;html=1;rounded=0;" parent="1" target="UZr9VpXuxcfmV2gfaOis-114" edge="1">
          <mxGeometry width="50" height="50" relative="1" as="geometry">
            <mxPoint x="410" y="270" as="sourcePoint" />
            <mxPoint x="510" y="440" as="targetPoint" />
          </mxGeometry>
        </mxCell>
        <mxCell id="UZr9VpXuxcfmV2gfaOis-114" value="Opens add new trip page" style="text;html=1;strokeColor=none;fillColor=none;align=center;verticalAlign=middle;whiteSpace=wrap;rounded=0;" parent="1" vertex="1">
          <mxGeometry x="500" y="330" width="180" height="30" as="geometry" />
        </mxCell>
        <mxCell id="GPXu9xZW1MYYyRPJ6kxz-1" value="" style="group" parent="1" vertex="1" connectable="0">
          <mxGeometry x="580" y="90" width="200" height="230" as="geometry" />
        </mxCell>
        <mxCell id="GPXu9xZW1MYYyRPJ6kxz-2" value="" style="rounded=0;whiteSpace=wrap;html=1;" parent="GPXu9xZW1MYYyRPJ6kxz-1" vertex="1">
          <mxGeometry width="200" height="230" as="geometry" />
        </mxCell>
        <mxCell id="GPXu9xZW1MYYyRPJ6kxz-3" value="" style="shape=image;html=1;verticalAlign=top;verticalLabelPosition=bottom;labelBackgroundColor=#ffffff;imageAspect=0;aspect=fixed;image=https://cdn2.iconfinder.com/data/icons/user-interface-169/32/about-128.png" parent="GPXu9xZW1MYYyRPJ6kxz-1" vertex="1">
          <mxGeometry x="19" y="20" width="30" height="30" as="geometry" />
        </mxCell>
        <mxCell id="GPXu9xZW1MYYyRPJ6kxz-4" value="View Profile" style="text;html=1;strokeColor=none;fillColor=none;align=center;verticalAlign=middle;whiteSpace=wrap;rounded=0;" parent="GPXu9xZW1MYYyRPJ6kxz-1" vertex="1">
          <mxGeometry x="50" y="20" width="80" height="30" as="geometry" />
        </mxCell>
        <mxCell id="GPXu9xZW1MYYyRPJ6kxz-5" value="" style="group" parent="GPXu9xZW1MYYyRPJ6kxz-1" vertex="1" connectable="0">
          <mxGeometry x="20" y="60" width="101" height="30" as="geometry" />
        </mxCell>
        <mxCell id="GPXu9xZW1MYYyRPJ6kxz-6" value="" style="sketch=0;pointerEvents=1;shadow=0;dashed=0;html=1;strokeColor=none;fillColor=#505050;labelPosition=center;verticalLabelPosition=bottom;verticalAlign=top;outlineConnect=0;align=center;shape=mxgraph.office.concepts.settings_office_365;" parent="GPXu9xZW1MYYyRPJ6kxz-5" vertex="1">
          <mxGeometry width="31" height="30" as="geometry" />
        </mxCell>
        <mxCell id="GPXu9xZW1MYYyRPJ6kxz-7" value="Settings" style="text;html=1;strokeColor=none;fillColor=none;align=center;verticalAlign=middle;whiteSpace=wrap;rounded=0;" parent="GPXu9xZW1MYYyRPJ6kxz-5" vertex="1">
          <mxGeometry x="41" width="60" height="30" as="geometry" />
        </mxCell>
        <mxCell id="GPXu9xZW1MYYyRPJ6kxz-8" value="" style="group" parent="GPXu9xZW1MYYyRPJ6kxz-1" vertex="1" connectable="0">
          <mxGeometry x="20" y="100" width="100" height="30" as="geometry" />
        </mxCell>
        <mxCell id="GPXu9xZW1MYYyRPJ6kxz-9" value="" style="shape=image;html=1;verticalAlign=top;verticalLabelPosition=bottom;labelBackgroundColor=#ffffff;imageAspect=0;aspect=fixed;image=https://cdn0.iconfinder.com/data/icons/google-material-design-3-0/48/ic_exit_to_app_48px-128.png" parent="GPXu9xZW1MYYyRPJ6kxz-8" vertex="1">
          <mxGeometry width="30" height="30" as="geometry" />
        </mxCell>
        <mxCell id="GPXu9xZW1MYYyRPJ6kxz-10" value="Log out" style="text;html=1;strokeColor=none;fillColor=none;align=center;verticalAlign=middle;whiteSpace=wrap;rounded=0;" parent="GPXu9xZW1MYYyRPJ6kxz-8" vertex="1">
          <mxGeometry x="40" width="60" height="30" as="geometry" />
        </mxCell>
        <mxCell id="GPXu9xZW1MYYyRPJ6kxz-11" value="contact us" style="text;html=1;strokeColor=none;fillColor=none;align=center;verticalAlign=middle;whiteSpace=wrap;rounded=0;" parent="GPXu9xZW1MYYyRPJ6kxz-1" vertex="1">
          <mxGeometry x="60" y="140" width="80" height="30" as="geometry" />
        </mxCell>
        <mxCell id="GPXu9xZW1MYYyRPJ6kxz-12" value="" style="whiteSpace=wrap;html=1;shape=mxgraph.basic.oval_callout" parent="GPXu9xZW1MYYyRPJ6kxz-1" vertex="1">
          <mxGeometry x="20" y="140" width="34" height="20" as="geometry" />
        </mxCell>
        <mxCell id="vSi7MAUmv1Z4n6N-WMyY-1" value="" style="endArrow=classic;html=1;rounded=0;" edge="1" parent="1">
          <mxGeometry width="50" height="50" relative="1" as="geometry">
            <mxPoint x="400" y="130" as="sourcePoint" />
            <mxPoint x="450" y="80" as="targetPoint" />
          </mxGeometry>
        </mxCell>
        <mxCell id="vSi7MAUmv1Z4n6N-WMyY-2" value="If not logged in, shows: Sign Up / Log In" style="text;html=1;strokeColor=none;fillColor=none;align=center;verticalAlign=middle;whiteSpace=wrap;rounded=0;" vertex="1" parent="1">
          <mxGeometry x="436" y="60" width="144" height="30" as="geometry" />
        </mxCell>
        <mxCell id="vSi7MAUmv1Z4n6N-WMyY-3" value="" style="endArrow=classic;html=1;rounded=0;" edge="1" parent="1">
          <mxGeometry width="50" height="50" relative="1" as="geometry">
            <mxPoint x="386" y="370" as="sourcePoint" />
            <mxPoint x="530" y="440" as="targetPoint" />
          </mxGeometry>
        </mxCell>
        <mxCell id="vSi7MAUmv1Z4n6N-WMyY-4" value="When user not logged in, displays a &lt;br&gt;simple trip, to demonstrate functionality. &lt;br&gt;Edit, save, or delete actions are not&lt;br&gt;available for unauthenticated users.&amp;nbsp;&lt;br&gt;When clicked a pop up will remind to log in.&amp;nbsp;" style="text;html=1;align=center;verticalAlign=middle;resizable=0;points=[];autosize=1;strokeColor=none;fillColor=none;" vertex="1" parent="1">
          <mxGeometry x="520" y="398" width="260" height="90" as="geometry" />
        </mxCell>
      </root>
    </mxGraphModel>
  </diagram>
</mxfile>
